<?xml version="1.0" encoding="iso-8859-1"?>
<!-- Generator: Adobe Illustrator 19.0.0, SVG Export Plug-In . SVG Version: 6.00 Build 0)  -->
<svg version="1.1" id="Capa_1" xmlns="http://www.w3.org/2000/svg" xmlns:xlink="http://www.w3.org/1999/xlink" x="0px" y="0px"
	 viewBox="0 0 512 512" style="enable-background:new 0 0 512 512;" xml:space="preserve">
<path style="fill:#FFFFFF;" d="M501.964,207.282L281.988,19.638C267.021,6.87,244.991,6.883,230.04,19.67L10.038,207.798v274.206
	c0,11.044,8.953,19.997,19.997,19.997h451.932c11.044,0,19.997-8.953,19.997-19.997V207.282z"/>
<path style="fill:#6A80FF;" d="M501.964,482.004V207.282l-0.464-0.396L277.161,398.391c-12.281,10.483-30.362,10.478-42.638-0.011
	L10.767,207.175l-0.729,0.623v274.206c0,11.044,8.953,19.997,19.997,19.997h451.932C493.01,502.001,501.964,493.048,501.964,482.004
	z"/>
<path style="fill:#99BBFF;" d="M169.501,342.817L169.501,342.817L15.897,496.142l479.911-0.009L342.386,342.711l-0.175,0.15
	C276.806,342.844,234.906,342.834,169.501,342.817z"/>
<circle style="fill:#C9F3FF;" cx="94.026" cy="94.065" r="83.987"/>
<path style="fill:#FF5D5D;" d="M153.834,147.242c0-12.578-8.965-23.369-21.33-25.676l-15.213-2.838l-46.597,0.011l-15.156,2.827
	c-12.365,2.306-21.33,13.098-21.33,25.676v5.76c15.232,15.457,36.4,25.047,59.815,25.047c23.412,0,44.578-9.589,59.81-25.041
	V147.242z"/>
<path style="fill:#FCC69D;" d="M94.022,63.964L94.022,63.964c-15.731,0-28.482,12.752-28.482,28.482v8.911
	c0,15.731,12.752,28.482,28.482,28.482l0,0c15.731,0,28.482-12.752,28.482-28.482v-8.911
	C122.504,76.716,109.752,63.964,94.022,63.964z"/>
<circle style="fill:#C9F3FF;" cx="417.977" cy="94.065" r="83.987"/>
<path style="fill:#A0E557;" d="M477.785,147.242c0-12.578-8.965-23.369-21.33-25.676l-15.213-2.838l-46.597,0.011l-15.156,2.827
	c-12.365,2.306-21.33,13.098-21.33,25.676v5.76c15.232,15.457,36.4,25.047,59.815,25.047c23.412,0,44.578-9.589,59.81-25.041
	V147.242z"/>
<path style="fill:#FCC69D;" d="M417.973,63.964L417.973,63.964c-15.731,0-28.482,12.752-28.482,28.482v8.911
	c0,15.731,12.752,28.482,28.482,28.482l0,0c15.731,0,28.482-12.752,28.482-28.482v-8.911
	C446.455,76.716,433.703,63.964,417.973,63.964z"/>
<path d="M508.452,199.675l-34.963-29.824c23.31-17.12,38.472-44.715,38.472-75.789c0-51.824-42.162-93.986-93.986-93.986
	c-36.383,0-68.001,20.781-83.614,51.095l-45.885-39.142c-18.822-16.056-46.132-16.04-64.934,0.04l-45.848,39.205
	C162.099,20.904,130.449,0.078,94.025,0.078c-51.824,0-93.986,42.162-93.986,93.986c0,31.197,15.284,58.888,38.751,75.993
	L3.539,200.199c-2.222,1.9-3.5,4.676-3.5,7.599v274.206C0.038,498.544,13.494,512,30.034,512h451.932
	c16.54,0,29.995-13.456,29.995-29.995V207.282C511.962,204.355,510.679,201.575,508.452,199.675z M155.257,342.921L20.036,478.142
	V227.372L155.257,342.921z M173,353.458l166.106,0.042c0.208,0.254,0.43,0.501,0.667,0.738l137.764,137.764H34.455L173,353.458z
	 M356.668,342.852l135.297-115.494V478.15L356.668,342.852z M436.457,101.356c0,10.191-8.292,18.483-18.483,18.483
	s-18.483-8.292-18.483-18.483v-8.911c0-10.191,8.292-18.483,18.483-18.483s18.483,8.292,18.483,18.483V101.356z M391.723,129.457
	c6.881,6.432,16.111,10.38,26.25,10.38s19.369-3.948,26.25-10.38l10.399,1.94c7.628,1.423,13.165,8.087,13.165,15.847v1.481
	c-13.156,12-30.643,19.329-49.811,19.329c-19.17,0-36.66-7.331-49.817-19.333v-1.476c0-7.759,5.536-14.424,13.164-15.847
	L391.723,129.457z M417.976,20.074c40.798,0,73.989,33.191,73.989,73.989c0,12.754-3.245,24.764-8.95,35.25
	c-5.127-8.951-14.003-15.575-24.726-17.574l-3.105-0.579c0.826-3.132,1.27-6.416,1.27-9.803v-8.912
	c0-21.218-17.262-38.48-38.48-38.48c-21.218,0-38.481,17.262-38.481,38.48v8.911c0,3.386,0.444,6.671,1.27,9.803l-3.105,0.579
	c-10.72,2-19.595,8.622-24.723,17.57c-5.704-10.484-8.948-22.494-8.948-35.246C343.988,53.266,377.178,20.074,417.976,20.074z
	 M94.025,20.074c40.798,0,73.989,33.191,73.989,73.989c0,12.754-3.245,24.764-8.95,35.25c-5.127-8.951-14.003-15.575-24.726-17.574
	l-3.105-0.579c0.826-3.132,1.27-6.416,1.27-9.803v-8.912c0-21.218-17.262-38.48-38.48-38.48s-38.481,17.262-38.481,38.48v8.911
	c0,3.386,0.444,6.671,1.27,9.803l-3.106,0.579c-10.72,2-19.595,8.622-24.723,17.57c-5.704-10.484-8.948-22.494-8.948-35.246
	C20.036,53.266,53.227,20.074,94.025,20.074z M44.209,148.718v-1.476c0-7.759,5.536-14.424,13.164-15.847l10.4-1.94
	c6.881,6.432,16.111,10.38,26.25,10.38s19.369-3.948,26.25-10.38l10.399,1.94c7.628,1.423,13.165,8.087,13.165,15.847v1.481
	c-13.156,12-30.643,19.329-49.812,19.329C74.854,168.052,57.366,160.721,44.209,148.718z M112.505,101.356
	c0,10.191-8.292,18.483-18.483,18.483s-18.483-8.292-18.483-18.483v-8.911c0-10.191,8.292-18.483,18.483-18.483
	s18.483,8.292,18.483,18.483V101.356z M94.025,188.049c51.824,0,93.986-42.162,93.986-93.986c0-7.891-0.983-15.556-2.823-22.885
	l51.35-43.91c11.282-9.647,27.668-9.658,38.961-0.024l51.347,43.8c-1.862,7.369-2.856,15.08-2.856,23.019
	c0,51.824,42.162,93.986,93.986,93.986c13.164,0,25.701-2.725,37.085-7.633l30.56,26.069c-0.016,0.014-0.034,0.025-0.05,0.038
	l-148.753,126.98l-161.851-0.041L27.002,207.021c-0.115-0.098-0.236-0.181-0.354-0.272l30.623-26.187
	C68.568,185.38,80.99,188.049,94.025,188.049z"/>
<path d="M176.773,208.004h158.455c4.043,0,7.69-2.437,9.238-6.172c1.548-3.735,0.692-8.037-2.167-10.895l-23.996-23.996
	c-3.904-3.905-10.235-3.903-14.14,0c-3.904,3.904-3.905,10.235,0,14.14l6.929,6.929H176.773c-5.522,0-9.998,4.476-9.998,9.998
	S171.25,208.004,176.773,208.004z"/>
<path d="M290.444,228.084H176.773c-4.043,0-7.69,2.437-9.238,6.172c-1.548,3.735-0.692,8.037,2.167,10.896l23.996,23.996
	c1.953,1.952,4.511,2.929,7.07,2.929c2.559,0,5.118-0.977,7.07-2.929c3.904-3.904,3.904-10.235,0-14.141l-6.928-6.928h89.532
	c5.522,0,9.998-4.476,9.998-9.998C300.44,232.56,295.966,228.084,290.444,228.084z"/>
<path d="M335.228,228.08c-2.63,0-5.209,1.07-7.069,2.93c-1.86,1.86-2.93,4.439-2.93,7.069c0,2.64,1.07,5.209,2.93,7.079
	c1.86,1.86,4.439,2.92,7.069,2.92s5.209-1.06,7.069-2.92c1.86-1.87,2.93-4.439,2.93-7.079c0-2.63-1.07-5.209-2.93-7.069
	C340.437,229.15,337.857,228.08,335.228,228.08z"/>
<g>
</g>
<g>
</g>
<g>
</g>
<g>
</g>
<g>
</g>
<g>
</g>
<g>
</g>
<g>
</g>
<g>
</g>
<g>
</g>
<g>
</g>
<g>
</g>
<g>
</g>
<g>
</g>
<g>
</g>
</svg>
